<svg xmlns="http://www.w3.org/2000/svg" width="11in" height="8.5in" viewBox="0 0 1056 816" role="img" aria-label="Weekly Chore Chart" font-family="Nunito, &#39;Nunito Fallback&#39;, Arial, sans-serif"><title>Weekly Chore Chart</title><rect x="0" y="0" width="1056" height="816" fill="#ffffff" data-part="background"/><rect x="38.4" y="38.4" width="979.2" height="96" rx="16" fill="#ffffff" stroke="#111111" stroke-width="1.5"/><image href="/icons/avatar-bear.svg" x="929.6" y="50.4" width="72" height="72"/><text x="58.4" y="86.4" font-size="40" font-weight="700" fill="#111111">Weekly Chore Chart</text><text x="58.4" y="113.4" font-size="19" fill="#111111">Child 1</text><svg x="38.4" y="140.4" width="979.2" height="24" viewBox="0 0 979.2 24" overflow="hidden" aria-hidden="true"><line x1="0" y1="12" x2="979.2" y2="12" stroke="#111111" stroke-width="1"/></svg><rect x="38.4" y="174.4" width="979.2" height="38" fill="#ffffff"/><text x="50.4" y="199.2" font-size="16" font-weight="700" fill="#111111">Chores</text><text x="417.5" y="199.2" font-size="16" font-weight="700" fill="#111111" text-anchor="middle">Sun</text><text x="509.8" y="199.2" font-size="16" font-weight="700" fill="#111111" text-anchor="middle">Mon</text><text x="602.1" y="199.2" font-size="16" font-weight="700" fill="#111111" text-anchor="middle">Tue</text><text x="694.5" y="199.2" font-size="16" font-weight="700" fill="#111111" text-anchor="middle">Wed</text><text x="786.8" y="199.2" font-size="16" font-weight="700" fill="#111111" text-anchor="middle">Thu</text><text x="879.1" y="199.2" font-size="16" font-weight="700" fill="#111111" text-anchor="middle">Fri</text><text x="971.4" y="199.2" font-size="16" font-weight="700" fill="#111111" text-anchor="middle">Sat</text><rect x="38.4" y="212.4" width="979.2" height="90.9" fill="#ffffff"/><image href="/icons/bed.svg" x="48.4" y="231.8" width="52" height="52"/><text x="108.4" y="267.2" font-size="26" font-weight="700" fill="#111111">Make the bed</text><rect x="400.5" y="240.8" width="34" height="34" rx="6" fill="#ffffff" stroke="#111111" stroke-width="2"/><rect x="492.8" y="240.8" width="34" height="34" rx="6" fill="#ffffff" stroke="#111111" stroke-width="2"/><rect x="585.1" y="240.8" width="34" height="34" rx="6" fill="#ffffff" stroke="#111111" stroke-width="2"/><rect x="677.5" y="240.8" width="34" height="34" rx="6" fill="#ffffff" stroke="#111111" stroke-width="2"/><rect x="769.8" y="240.8" width="34" height="34" rx="6" fill="#ffffff" stroke="#111111" stroke-width="2"/><rect x="862.1" y="240.8" width="34" height="34" rx="6" fill="#ffffff" stroke="#111111" stroke-width="2"/><rect x="954.4" y="240.8" width="34" height="34" rx="6" fill="#ffffff" stroke="#111111" stroke-width="2"/><rect x="38.4" y="303.3" width="979.2" height="90.9" fill="#ffffff"/><image href="/icons/hamper.svg" x="48.4" y="322.7" width="52" height="52"/><text x="108.4" y="343.1" font-size="26" font-weight="700" fill="#111111">Put dirty clothes</text><text x="108.4" y="373" font-size="26" font-weight="700" fill="#111111">in the hamper</text><rect x="400.5" y="331.7" width="34" height="34" rx="6" fill="#ffffff" stroke="#111111" stroke-width="2"/><rect x="492.8" y="331.7" width="34" height="34" rx="6" fill="#ffffff" stroke="#111111" stroke-width="2"/><rect x="585.1" y="331.7" width="34" height="34" rx="6" fill="#ffffff" stroke="#111111" stroke-width="2"/><rect x="677.5" y="331.7" width="34" height="34" rx="6" fill="#ffffff" stroke="#111111" stroke-width="2"/><rect x="769.8" y="331.7" width="34" height="34" rx="6" fill="#ffffff" stroke="#111111" stroke-width="2"/><rect x="862.1" y="331.7" width="34" height="34" rx="6" fill="#ffffff" stroke="#111111" stroke-width="2"/><rect x="954.4" y="331.7" width="34" height="34" rx="6" fill="#ffffff" stroke="#111111" stroke-width="2"/><rect x="38.4" y="394.1" width="979.2" height="90.9" fill="#ffffff"/><image href="/icons/place-setting.svg" x="48.4" y="413.6" width="52" height="52"/><text x="108.4" y="448.9" font-size="26" font-weight="700" fill="#111111">Set the table</text><rect x="400.5" y="422.6" width="34" height="34" rx="6" fill="#ffffff" stroke="#111111" stroke-width="2"/><rect x="492.8" y="422.6" width="34" height="34" rx="6" fill="#ffffff" stroke="#111111" stroke-width="2"/><rect x="585.1" y="422.6" width="34" height="34" rx="6" fill="#ffffff" stroke="#111111" stroke-width="2"/><rect x="677.5" y="422.6" width="34" height="34" rx="6" fill="#ffffff" stroke="#111111" stroke-width="2"/><rect x="769.8" y="422.6" width="34" height="34" rx="6" fill="#ffffff" stroke="#111111" stroke-width="2"/><rect x="862.1" y="422.6" width="34" height="34" rx="6" fill="#ffffff" stroke="#111111" stroke-width="2"/><rect x="954.4" y="422.6" width="34" height="34" rx="6" fill="#ffffff" stroke="#111111" stroke-width="2"/><rect x="38.4" y="485" width="979.2" height="90.9" fill="#ffffff"/><image href="/icons/pet-bowl.svg" x="48.4" y="504.4" width="52" height="52"/><text x="108.4" y="539.8" font-size="26" font-weight="700" fill="#111111">Feed the pet</text><rect x="400.5" y="513.4" width="34" height="34" rx="6" fill="#ffffff" stroke="#111111" stroke-width="2"/><rect x="492.8" y="513.4" width="34" height="34" rx="6" fill="#ffffff" stroke="#111111" stroke-width="2"/><rect x="585.1" y="513.4" width="34" height="34" rx="6" fill="#ffffff" stroke="#111111" stroke-width="2"/><rect x="677.5" y="513.4" width="34" height="34" rx="6" fill="#ffffff" stroke="#111111" stroke-width="2"/><rect x="769.8" y="513.4" width="34" height="34" rx="6" fill="#ffffff" stroke="#111111" stroke-width="2"/><rect x="862.1" y="513.4" width="34" height="34" rx="6" fill="#ffffff" stroke="#111111" stroke-width="2"/><rect x="954.4" y="513.4" width="34" height="34" rx="6" fill="#ffffff" stroke="#111111" stroke-width="2"/><rect x="38.4" y="575.9" width="979.2" height="90.9" fill="#ffffff"/><image href="/icons/bedroom.svg" x="48.4" y="595.3" width="52" height="52"/><text x="108.4" y="630.7" font-size="26" font-weight="700" fill="#111111">Tidy the bedroom</text><rect x="400.5" y="604.3" width="34" height="34" rx="6" fill="#ffffff" stroke="#111111" stroke-width="2"/><rect x="492.8" y="604.3" width="34" height="34" rx="6" fill="#ffffff" stroke="#111111" stroke-width="2"/><rect x="585.1" y="604.3" width="34" height="34" rx="6" fill="#ffffff" stroke="#111111" stroke-width="2"/><rect x="677.5" y="604.3" width="34" height="34" rx="6" fill="#ffffff" stroke="#111111" stroke-width="2"/><rect x="769.8" y="604.3" width="34" height="34" rx="6" fill="#ffffff" stroke="#111111" stroke-width="2"/><rect x="862.1" y="604.3" width="34" height="34" rx="6" fill="#ffffff" stroke="#111111" stroke-width="2"/><rect x="954.4" y="604.3" width="34" height="34" rx="6" fill="#ffffff" stroke="#111111" stroke-width="2"/><rect x="38.4" y="666.7" width="979.2" height="90.9" fill="#ffffff"/><image href="/icons/toothbrush.svg" x="48.4" y="686.2" width="52" height="52"/><text x="108.4" y="706.6" font-size="26" font-weight="700" fill="#111111">Brush teeth</text><text x="108.4" y="736.5" font-size="26" font-weight="700" fill="#111111">(bedtime)</text><rect x="400.5" y="695.2" width="34" height="34" rx="6" fill="#ffffff" stroke="#111111" stroke-width="2"/><rect x="492.8" y="695.2" width="34" height="34" rx="6" fill="#ffffff" stroke="#111111" stroke-width="2"/><rect x="585.1" y="695.2" width="34" height="34" rx="6" fill="#ffffff" stroke="#111111" stroke-width="2"/><rect x="677.5" y="695.2" width="34" height="34" rx="6" fill="#ffffff" stroke="#111111" stroke-width="2"/><rect x="769.8" y="695.2" width="34" height="34" rx="6" fill="#ffffff" stroke="#111111" stroke-width="2"/><rect x="862.1" y="695.2" width="34" height="34" rx="6" fill="#ffffff" stroke="#111111" stroke-width="2"/><rect x="954.4" y="695.2" width="34" height="34" rx="6" fill="#ffffff" stroke="#111111" stroke-width="2"/><path d="M38.4 303.3L1017.6 303.3M38.4 394.1L1017.6 394.1M38.4 485L1017.6 485M38.4 575.9L1017.6 575.9M38.4 666.7L1017.6 666.7M38.4 757.6L1017.6 757.6M371.3 174.4L371.3 757.6M463.7 174.4L463.7 757.6M556 174.4L556 757.6M648.3 174.4L648.3 757.6M740.6 174.4L740.6 757.6M833 174.4L833 757.6M925.3 174.4L925.3 757.6" fill="none" stroke="#9ca3af" stroke-width="1"/><rect x="38.4" y="174.4" width="979.2" height="583.2" rx="16" fill="none" stroke="#9ca3af" stroke-width="2" stroke-dasharray="8 5"/><text x="1017.6" y="774.6" font-size="9" fill="#555555" text-anchor="end">chorechartmaker.com</text></svg>